<svg width="222" height="222" viewBox="0 0 222 222" fill="none" xmlns="http://www.w3.org/2000/svg">
<path d="M28.2 0.399994H193.8C201.39 0.399994 207.876 3.15999 213.258 8.54199C218.64 13.924 221.4 20.41 221.4 28V124.6C221.4 132.19 218.64 138.676 213.258 144.058C207.876 149.44 201.39 152.2 193.8 152.2H180L111 221.2V152.2H28.2C20.61 152.2 14.124 149.44 8.74197 144.058C3.35997 138.676 0.599976 132.19 0.599976 124.6V28C0.599976 20.41 3.35997 13.924 8.74197 8.54199C14.124 3.15999 20.61 0.399994 28.2 0.399994ZM180 28H28.2V41.8H180V28ZM193.8 69.4H28.2V83.2H193.8V69.4ZM152.4 110.8H28.2V124.6H152.4V110.8Z" fill="white"/>
</svg>
