<svg width="224" height="48" viewBox="0 0 224 48" fill="none" xmlns="http://www.w3.org/2000/svg">
<rect y="3" width="50" height="42" fill="#EEEEEE"/>
<path d="M26.8691 38.0909V9H32.139V33.6733H44.9515V38.0909H26.8691Z" fill="#2D2C2C"/>
<path d="M23.082 38.0909V9H17.8121V33.6733H4.99964V38.0909H23.082Z" fill="#2D2C2C"/>
<path d="M59.8636 39V9.90909H62.5199V36.6136H76.3835V39H59.8636ZM95.7017 30.6619V17.1818H98.2301V39H95.7017V35.3778H95.5028C94.9915 36.4953 94.1818 37.428 93.0739 38.1761C91.9659 38.9148 90.6117 39.2841 89.0114 39.2841C87.6193 39.2841 86.3835 38.9811 85.304 38.375C84.2244 37.7595 83.3769 36.8598 82.7614 35.6761C82.1458 34.4924 81.8381 33.0388 81.8381 31.3153V17.1818H84.3665V31.1591C84.3665 32.8636 84.8684 34.2367 85.8722 35.2784C86.8759 36.3106 88.1638 36.8267 89.7358 36.8267C90.7206 36.8267 91.6676 36.59 92.5767 36.1165C93.4858 35.643 94.2339 34.9517 94.821 34.0426C95.4081 33.1241 95.7017 31.9972 95.7017 30.6619ZM106.487 17.1818L112.112 26.4858L117.737 17.1818H120.677L113.66 28.0909L120.677 39H117.737L112.112 29.9943L106.487 39H103.56L110.492 28.0909L103.56 17.1818H106.487ZM133.901 39.4545C131.865 39.4545 130.104 38.9811 128.617 38.0341C127.13 37.0777 125.98 35.7566 125.165 34.071C124.361 32.3759 123.958 30.4252 123.958 28.2188C123.958 26.0218 124.361 24.071 125.165 22.3665C125.98 20.6525 127.102 19.3125 128.532 18.3466C129.971 17.3712 131.633 16.8835 133.518 16.8835C134.701 16.8835 135.843 17.1013 136.941 17.5369C138.04 17.9631 139.024 18.6212 139.896 19.5114C140.776 20.392 141.472 21.5047 141.984 22.8494C142.495 24.1847 142.751 25.7661 142.751 27.5938V28.8438H125.705V26.6136H140.165C140.165 25.2121 139.881 23.9527 139.313 22.8352C138.754 21.7083 137.973 20.8182 136.969 20.1648C135.975 19.5114 134.825 19.1847 133.518 19.1847C132.135 19.1847 130.918 19.554 129.867 20.2926C128.816 21.0312 127.992 22.0066 127.396 23.2188C126.808 24.4309 126.51 25.7566 126.501 27.196V28.5312C126.501 30.2642 126.799 31.7794 127.396 33.0767C128.002 34.3646 128.859 35.3636 129.967 36.0739C131.075 36.7841 132.386 37.1392 133.901 37.1392C134.933 37.1392 135.838 36.9782 136.614 36.6562C137.4 36.3343 138.058 35.9034 138.589 35.3636C139.129 34.8144 139.536 34.2131 139.81 33.5597L142.211 34.3409C141.879 35.2595 141.335 36.107 140.577 36.8835C139.829 37.66 138.892 38.285 137.765 38.7585C136.647 39.2225 135.36 39.4545 133.901 39.4545ZM148.848 39V9.90909H151.504V36.6136H165.368V39H148.848ZM170.851 39V17.1818H173.393V39H170.851ZM172.143 13.4318C171.623 13.4318 171.178 13.2566 170.808 12.9062C170.439 12.5464 170.254 12.1155 170.254 11.6136C170.254 11.1117 170.439 10.6856 170.808 10.3352C171.178 9.97538 171.623 9.79545 172.143 9.79545C172.664 9.79545 173.109 9.97538 173.479 10.3352C173.848 10.6856 174.033 11.1117 174.033 11.6136C174.033 12.1155 173.848 12.5464 173.479 12.9062C173.109 13.2566 172.664 13.4318 172.143 13.4318ZM182.609 25.3636V39H180.08V17.1818H182.538V20.6051H182.765C183.276 19.4877 184.072 18.5928 185.151 17.9205C186.24 17.2386 187.585 16.8977 189.185 16.8977C190.653 16.8977 191.941 17.2055 193.049 17.821C194.166 18.4271 195.033 19.322 195.648 20.5057C196.273 21.6894 196.586 23.143 196.586 24.8665V39H194.058V25.0227C194.058 23.233 193.556 21.8172 192.552 20.7756C191.558 19.7339 190.222 19.2131 188.546 19.2131C187.4 19.2131 186.382 19.4593 185.492 19.9517C184.602 20.4441 183.897 21.1544 183.376 22.0824C182.864 23.0009 182.609 24.0947 182.609 25.3636ZM212.065 39.4545C210.029 39.4545 208.268 38.9811 206.781 38.0341C205.295 37.0777 204.144 35.7566 203.33 34.071C202.525 32.3759 202.122 30.4252 202.122 28.2188C202.122 26.0218 202.525 24.071 203.33 22.3665C204.144 20.6525 205.266 19.3125 206.696 18.3466C208.135 17.3712 209.797 16.8835 211.682 16.8835C212.866 16.8835 214.007 17.1013 215.105 17.5369C216.204 17.9631 217.188 18.6212 218.06 19.5114C218.94 20.392 219.636 21.5047 220.148 22.8494C220.659 24.1847 220.915 25.7661 220.915 27.5938V28.8438H203.869V26.6136H218.33C218.33 25.2121 218.045 23.9527 217.477 22.8352C216.919 21.7083 216.137 20.8182 215.134 20.1648C214.139 19.5114 212.989 19.1847 211.682 19.1847C210.299 19.1847 209.082 19.554 208.031 20.2926C206.98 21.0312 206.156 22.0066 205.56 23.2188C204.973 24.4309 204.674 25.7566 204.665 27.196V28.5312C204.665 30.2642 204.963 31.7794 205.56 33.0767C206.166 34.3646 207.023 35.3636 208.131 36.0739C209.239 36.7841 210.55 37.1392 212.065 37.1392C213.098 37.1392 214.002 36.9782 214.778 36.6562C215.564 36.3343 216.223 35.9034 216.753 35.3636C217.293 34.8144 217.7 34.2131 217.974 33.5597L220.375 34.3409C220.044 35.2595 219.499 36.107 218.741 36.8835C217.993 37.66 217.056 38.285 215.929 38.7585C214.812 39.2225 213.524 39.4545 212.065 39.4545Z" fill="#EEEEEE"/>
</svg>
