<svg width="79" height="79" viewBox="0 0 79 79" fill="none" xmlns="http://www.w3.org/2000/svg">
<path d="M39.4993 29.8553C46.6075 29.8553 52.3697 24.0931 52.3697 16.9849C52.3697 9.87678 46.6075 4.1145 39.4993 4.1145C32.3912 4.1145 26.6289 9.87678 26.6289 16.9849C26.6289 24.0931 32.3912 29.8553 39.4993 29.8553Z" stroke="#EEEEEE" stroke-width="4" stroke-miterlimit="10"/>
<path d="M57.0767 41.2117C67.7417 43.3842 74.8846 47.5646 74.8846 52.3704C74.8846 58.6575 62.4092 63.9242 45.918 65.0104" stroke="#EEEEEE" stroke-width="4" stroke-miterlimit="10"/>
<path d="M21.9222 41.2117C11.2572 43.3842 4.11426 47.5646 4.11426 52.3704C4.11426 58.9538 18.2026 64.5825 36.208 65.175" stroke="#EEEEEE" stroke-width="4" stroke-miterlimit="10"/>
<path d="M26.6289 55.5962L36.2735 65.2408L26.6289 74.8854" stroke="#EEEEEE" stroke-width="4" stroke-miterlimit="10"/>
<path d="M58.7893 52.3702V49.0786C58.7719 43.9742 56.7319 39.0848 53.1164 35.4816C49.5009 31.8784 44.6045 29.8552 39.5001 29.8552C34.3843 29.8552 29.478 31.8875 25.8606 35.5049C22.2432 39.1223 20.2109 44.0286 20.2109 49.1444V52.4361" stroke="#EEEEEE" stroke-width="4" stroke-miterlimit="10"/>
</svg>
