<svg width="80" height="80" viewBox="0 0 80 80" fill="none" xmlns="http://www.w3.org/2000/svg">
<path fill-rule="evenodd" clip-rule="evenodd" d="M41.7185 17.9202C48.0934 11.5453 58.492 10.4532 65.5634 16.2809L65.567 16.2838C73.5928 22.9367 74.0203 34.8493 66.7961 42.0401C66.7955 42.0407 66.795 42.0412 66.7945 42.0417L42.2532 66.583C40.9884 67.8478 38.9833 67.8478 37.7185 66.583L13.1746 42.039C5.98591 34.8503 6.40806 22.904 14.4401 16.2811L14.4404 16.2809C21.5138 10.4515 31.9444 11.5793 38.2852 17.9202L37.1539 19.0516L38.2852 17.9202L40.0019 19.6368L41.7185 17.9202ZM63.5266 18.7489C57.862 14.0822 49.3178 14.8464 43.9812 20.183L41.1332 23.031C40.8332 23.331 40.4262 23.4996 40.0019 23.4996C39.5775 23.4996 39.1705 23.331 38.8705 23.031L36.0225 20.183L37.0855 19.1199L36.0225 20.183C30.7156 14.876 22.1385 14.0837 16.4759 18.7501M63.5266 18.7489C70.0904 24.1917 70.4308 33.9086 64.5373 39.7735L64.5345 39.7762L39.9905 64.3202C39.9888 64.3219 39.9873 64.3234 39.9859 64.3246C39.9844 64.3234 39.9829 64.3219 39.9812 64.3202L15.4373 39.7762L14.306 40.9076L15.4373 39.7762C9.57008 33.909 9.91589 24.1595 16.4755 18.7503" fill="#2D2D2D"/>
</svg>
